<?xml version="1.0" encoding="UTF-8"?>
<!DOCTYPE svg PUBLIC "-//W3C//DTD SVG 1.1//EN" "http://www.w3.org/Graphics/SVG/1.1/DTD/svg11.dtd">
<!-- Creator: CorelDRAW X7 -->
<svg xmlns="http://www.w3.org/2000/svg" xml:space="preserve" width="284.3mm" height="55.0335mm" version="1.1" style="shape-rendering:geometricPrecision; text-rendering:geometricPrecision; image-rendering:optimizeQuality; fill-rule:evenodd; clip-rule:evenodd"
viewBox="0 0 28430 5503"
 xmlns:xlink="http://www.w3.org/1999/xlink">
 <defs>
  <style type="text/css">
   <![CDATA[
    .fil0 {fill:#C12D31}
    .fil1 {fill:#C12D31;fill-rule:nonzero}
   ]]>
  </style>
 </defs>
 <g id="Layer_x0020_1">
  <metadata id="CorelCorpID_0Corel-Layer"/>
  <g id="_380088984">
   <path class="fil0" d="M1402 0l574 0 0 1515 -779 485 779 -348 1111 -559 1111 558 733 342 -733 -484 0 -1509 573 0c287,0 521,234 521,520l0 1687 899 448 -899 -256 0 2584c0,286 -234,520 -521,520l-573 0 0 -2765 -1129 -524 -1093 538 0 2751 -574 0c-286,0 -520,-234 -520,-520l0 -2558 -882 186 882 -434 0 -1657c0,-286 234,-520 520,-520zm1142 3187l424 0 0 441 -424 0 0 -441zm680 0l423 0 0 441 -423 0 0 -441zm-680 679l424 0 0 441 -424 0 0 -441zm680 0l423 0 0 441 -423 0 0 -441z"/>
   <path class="fil1" d="M7972 4311c0,-206 -66,-381 -199,-524 -132,-142 -294,-213 -486,-213 -190,0 -352,71 -485,213 -133,143 -200,318 -200,524 0,206 67,381 200,524 133,142 295,213 485,213 190,0 352,-71 485,-213 134,-143 200,-318 200,-524zm-1906 -5c0,-162 31,-315 93,-459 61,-144 150,-273 265,-384 114,-111 245,-196 393,-256 149,-59 303,-88 465,-88 167,0 324,29 472,88 147,60 279,147 397,262 116,114 205,243 266,386 61,143 91,294 91,451 0,164 -30,318 -90,461 -60,143 -148,270 -263,381 -122,117 -256,205 -405,265 -148,60 -304,90 -468,90 -160,0 -315,-30 -462,-90 -149,-60 -281,-147 -396,-260 -117,-116 -205,-245 -267,-389 -61,-143 -91,-296 -91,-458zm3098 1106l0 -1771 -388 0 0 -446 388 0 0 -838 507 0 0 838 388 0 0 446 -388 0 0 1771 -507 0zm3467 -1034l-1771 0c12,208 74,370 185,486 110,117 258,175 442,175 163,0 300,-34 409,-103 109,-69 204,-180 285,-333l426 239c-124,223 -278,388 -462,498 -184,109 -400,163 -648,163 -356,0 -638,-108 -849,-324 -210,-218 -315,-506 -315,-868 0,-348 108,-633 326,-857 217,-224 497,-335 838,-335 357,0 636,102 835,306 200,204 299,490 299,857l0 96zm-526 -340c-20,-159 -81,-280 -182,-363 -102,-84 -241,-125 -416,-125 -167,0 -301,40 -402,121 -101,81 -172,203 -213,367l1213 0zm1078 1374l0 -3625 507 0 0 3625 -507 0zm1188 -3175c0,-85 32,-159 95,-222 63,-62 138,-94 226,-94 90,0 166,31 226,91 60,59 90,135 90,225 0,91 -30,167 -91,229 -61,61 -136,92 -225,92 -88,0 -163,-32 -226,-95 -63,-63 -95,-138 -95,-226zm67 3175l0 -2217 508 0 0 2217 -508 0zm1232 0l0 -2217 477 0 0 364c101,-153 220,-265 358,-335 137,-70 304,-105 501,-105 165,0 306,26 422,78 116,52 207,130 272,233 39,61 67,132 85,213 17,81 25,223 25,425l0 1344 -512 0 0 -1138c0,-291 -35,-485 -106,-581 -71,-96 -197,-143 -379,-143 -118,0 -224,21 -316,65 -93,44 -166,105 -219,184 -38,54 -64,122 -78,205 -15,83 -23,216 -23,399l0 1009 -507 0zm2882 -258c0,-86 29,-159 88,-221 60,-60 133,-90 218,-90 86,0 158,30 218,90 59,62 89,135 89,221 0,84 -30,155 -89,214 -60,58 -132,87 -218,87 -85,0 -158,-29 -218,-87 -59,-59 -88,-130 -88,-214zm3035 -1327c-78,-85 -168,-151 -272,-195 -104,-46 -216,-68 -336,-68 -207,0 -373,67 -498,201 -125,134 -187,311 -187,533 0,231 63,412 188,544 126,131 299,197 521,197 123,0 233,-23 329,-69 97,-46 182,-116 255,-209l0 584c-93,53 -194,92 -301,118 -106,27 -220,40 -340,40 -348,0 -631,-111 -850,-332 -219,-221 -329,-508 -329,-860 0,-357 114,-645 340,-864 228,-219 524,-328 891,-328 115,0 221,11 318,34 96,22 187,57 271,104l0 570zm2261 484c0,-206 -66,-381 -199,-524 -132,-142 -294,-213 -486,-213 -190,0 -352,71 -485,213 -133,143 -199,318 -199,524 0,206 66,381 199,524 133,142 295,213 485,213 190,0 352,-71 486,-213 133,-143 199,-318 199,-524zm-1906 -5c0,-162 31,-315 93,-459 61,-144 150,-273 265,-384 114,-111 245,-196 393,-256 149,-59 303,-88 466,-88 166,0 324,29 471,88 147,60 280,147 397,262 116,114 205,243 266,386 61,143 91,294 91,451 0,164 -30,318 -90,461 -60,143 -147,270 -263,381 -121,117 -256,205 -405,265 -147,60 -304,90 -467,90 -161,0 -316,-30 -463,-90 -149,-60 -281,-147 -396,-260 -117,-116 -205,-245 -267,-389 -60,-143 -91,-296 -91,-458zm3486 1106l-508 0 0 -2217 477 0 0 364c102,-155 217,-268 345,-339 128,-71 280,-106 455,-106 173,0 317,36 430,108 114,73 200,184 259,332 118,-153 242,-265 374,-335 132,-70 282,-105 450,-105 146,0 274,27 383,80 110,55 194,133 255,236 29,48 49,106 62,173 14,67 20,163 20,287l0 178 0 1344 -508 0 0 -1138c0,-297 -31,-494 -95,-588 -63,-94 -175,-141 -337,-141 -200,0 -342,64 -426,191 -86,126 -128,349 -128,667l0 1009 -512 0 0 -1138c0,-274 -33,-464 -99,-570 -67,-107 -182,-159 -344,-159 -99,0 -190,22 -273,68 -83,45 -148,107 -197,186 -31,52 -52,115 -65,190 -12,75 -18,213 -18,414l0 1009z"/>
  </g>
 </g>
</svg>
